<svg width="17" height="19" fill="none" xmlns="http://www.w3.org/2000/svg"><mask id="a" maskUnits="userSpaceOnUse" x="0" y="-1" width="17" height="20"><path d="M7 .5l-3 5L3 5 .5 7.5v11H16V9l-3-3.5-6-5z" fill="#00C4C4" stroke="#000"/></mask><g mask="url(#a)"><path fill-rule="evenodd" clip-rule="evenodd" d="M52.801 15.181l-3.644 2.593c-.439.313-.7.103-.581-.474l.993-4.854-3.244-3.238c-.39-.389-.3-.742.222-.793l4.257-.396 1.645-4.607c.194-.547.509-.549.705 0L54.8 8.019l4.257.396c.51.05.616.397.22.793l-3.245 3.236.995 4.856c.117.574-.136.792-.581.475L52.8 15.18v.001zm-14.8 0l-3.644 2.593c-.439.313-.7.103-.581-.474l.993-4.854-3.244-3.238c-.39-.389-.3-.742.222-.793l4.257-.396 1.645-4.607c.194-.547.509-.549.705 0L40 8.019l4.257.396c.51.05.616.397.22.793l-3.245 3.236.995 4.856c.117.574-.136.792-.581.475L38 15.18v.001zm-14.682 0l-3.645 2.593c-.44.313-.699.103-.582-.474l.995-4.854-3.245-3.238c-.39-.389-.3-.742.222-.793l4.257-.396 1.644-4.607c.195-.547.51-.549.705 0l1.645 4.607 4.258.396c.512.05.617.397.222.793l-3.245 3.236.994 4.856c.118.574-.136.792-.58.475l-3.645-2.595v.001zm-14.844 0l-3.644 2.593c-.44.313-.7.103-.583-.474l.995-4.854L2 9.208c-.39-.389-.3-.742.22-.793l4.258-.396 1.647-4.607c.194-.547.509-.549.703 0l1.646 4.607 4.257.396c.513.05.617.397.222.793l-3.245 3.236.994 4.856c.117.574-.135.792-.581.475L8.475 15.18v.001zm-14.756 0l-3.645 2.593c-.44.313-.699.103-.582-.474l.995-4.854-3.246-3.239c-.39-.389-.3-.742.222-.793l4.257-.396 1.645-4.607c.194-.547.508-.549.704 0l1.645 4.607 4.258.396c.512.05.617.397.222.793l-3.245 3.236.994 4.856c.118.574-.136.792-.58.475l-3.645-2.595v.002z" fill="#162345"/></g></svg>